Coordinates
version=1
nRows=22
nColumns=24
inDegrees=yes

Units are S.I. units (second, meters, Newtons, ...)
If the header above contains a line with 'inDegrees', this indicates whether rotational values are in degrees (yes) or radians (no).

endheader
time	pelvis_tilt	pelvis_list	pelvis_rotation	pelvis_tx	pelvis_ty	pelvis_tz	hip_flexion_r	hip_adduction_r	hip_rotation_r	knee_angle_r	ankle_angle_r	subtalar_angle_r	mtp_angle_r	hip_flexion_l	hip_adduction_l	hip_rotation_l	knee_angle_l	ankle_angle_l	subtalar_angle_l	mtp_angle_l	lumbar_extension	lumbar_bending	lumbar_rotation
      0.00000000	      8.92044409	      1.77622257	   -178.10891253	      0.23007243	      0.85105734	     -1.19611510	     14.12230310	    -10.99130985	    -29.71158531	    -10.07151430	     -0.73442832	      9.11315708	      0.00000000	     14.87038348	    -13.65432334	    -29.62316118	     -9.91237084	      1.70030360	     21.54990887	      0.00000000	      5.43525321	      0.60538138	     -0.47653906
      0.00500000	      8.92594420	      1.82869593	   -178.12721518	      0.22981298	      0.85109056	     -1.19608046	     14.39488042	    -11.04623634	    -31.56295145	    -10.61795566	     -0.67817578	      9.54462400	      0.00000000	     14.85840582	    -13.71584097	    -29.66903670	     -9.91734927	      1.69844434	     21.57911059	      0.00000000	      5.46659065	      0.67546961	     -0.48549305
      0.01000000	      8.92507033	      1.84107901	   -178.15316053	      0.22958926	      0.85109192	     -1.19597901	     14.39193428	    -11.03755671	    -31.58790447	    -10.63272313	     -0.67210159	      9.54057175	      0.00000000	     14.82972572	    -13.72410171	    -29.68421712	     -9.90721062	      1.69555792	     21.56155905	      0.00000000	      5.48191198	      0.70297541	     -0.46175174
      0.01500000	      8.92404242	      1.87009028	   -178.19127754	      0.22937494	      0.85114072	     -1.19590701	     14.41530663	    -11.02065161	    -31.72568232	    -10.70628783	     -0.76275225	      9.52482786	      0.00000000	     14.80313001	    -13.75413565	    -29.71214919	     -9.90890347	      1.67644628	     21.51035728	      0.00000000	      5.49746720	      0.75759171	     -0.43826474
      0.02000000	      8.92871035	      1.86918330	   -178.19777319	      0.22917696	      0.85111744	     -1.19585404	     14.40292885	    -11.02648140	    -31.72030030	    -10.70803946	     -0.76359516	      9.52973507	      0.00000000	     14.79360881	    -13.75250668	    -29.70913831	     -9.91791001	      1.67824341	     21.50967079	      0.00000000	      5.51593967	      0.76191744	     -0.44624730
      0.02500000	      8.99789236	      1.80503940	   -178.16039482	      0.22903463	      0.85099770	     -1.19573984	     14.45555267	    -11.11349351	    -31.73168109	    -10.70495678	     -0.76581333	      9.56222453	      0.00000000	     14.86765975	    -13.66609469	    -29.64749033	     -9.93159521	      1.74298721	     21.52200937	      0.00000000	      5.59210810	      0.68508107	     -0.52937157
      0.03000000	      9.00211403	      1.80824003	   -178.16104989	      0.22883747	      0.85101321	     -1.19569419	     14.45153752	    -11.11162006	    -31.73657244	    -10.71359043	     -0.76625087	      9.56170008	      0.00000000	     14.86013736	    -13.66616655	    -29.64935503	     -9.93176383	      1.74595820	     21.51922122	      0.00000000	      5.60658018	      0.68409444	     -0.53134130
      0.03500000	      9.01131867	      1.79486953	   -178.15591558	      0.22866063	      0.85097788	     -1.19561960	     14.43962485	    -11.13005979	    -31.67478563	    -10.69026328	     -0.68613137	      9.61276701	      0.00000000	     14.85788729	    -13.64464866	    -29.63980201	     -9.93284031	      1.78278588	     21.49207075	      0.00000000	      5.61726115	      0.66342529	     -0.54387405
      0.04000000	      9.01116948	      1.80072295	   -178.16989372	      0.22844788	      0.85101484	     -1.19553512	     14.44309838	    -11.13617588	    -31.72189677	    -10.72454564	     -0.68303666	      9.59167497	      0.00000000	     14.83808621	    -13.64503832	    -29.64985475	     -9.93697016	      1.79173676	     21.47059364	      0.00000000	      5.62698524	      0.67637149	     -0.52578627
      0.04500000	      9.01369404	      1.80089767	   -178.17471160	      0.22825077	      0.85101026	     -1.19547510	     14.43574177	    -11.13961991	    -31.72261974	    -10.73220089	     -0.68519852	      9.59181433	      0.00000000	     14.82643636	    -13.64231744	    -29.64907034	     -9.94451291	      1.79290167	     21.46865473	      0.00000000	      5.64202006	      0.68375217	     -0.52925693
      0.05000000	      8.96833447	      1.82207689	   -178.20354889	      0.22807297	      0.85106275	     -1.19549539	     14.39098703	    -11.11514195	    -31.74142009	    -10.75050097	     -0.69405604	      9.60710612	      0.00000000	     14.76612814	    -13.67598012	    -29.66362895	     -9.97211956	      1.84584278	     21.41537524	      0.00000000	      5.59511223	      0.71222612	     -0.51305419
      0.05500000	      8.96938295	      1.82320091	   -178.20531270	      0.22787867	      0.85106192	     -1.19543426	     14.38256702	    -11.12054827	    -31.74406979	    -10.76269551	     -0.69869231	      9.60445746	      0.00000000	     14.75320467	    -13.67366751	    -29.66297447	     -9.97796456	      1.84480406	     21.41438797	      0.00000000	      5.61060662	      0.72159438	     -0.51512577
      0.06000000	      8.98748926	      1.82640541	   -178.21132783	      0.22766970	      0.85112283	     -1.19527825	     14.44673006	    -11.16000153	    -31.91863919	    -10.89388163	     -0.78190388	      9.54251132	      0.00000000	     14.74807944	    -13.66113902	    -29.64924488	     -9.95933174	      1.84138848	     21.38263293	      0.00000000	      5.64019519	      0.75070083	     -0.52421155
      0.06500000	      9.00191275	      1.84599168	   -178.20720296	      0.22749594	      0.85115101	     -1.19518763	     14.47623320	    -11.16246892	    -31.98742744	    -10.95649136	     -0.78667716	      9.55887141	      0.00000000	     14.75024148	    -13.66694655	    -29.61714054	     -9.94908888	      1.85207332	     21.33136953	      0.00000000	      5.66183661	      0.77576020	     -0.53125001
      0.07000000	      9.00336060	      1.85345315	   -178.22187888	      0.22731274	      0.85119972	     -1.19510536	     14.49225645	    -11.16488580	    -32.00894470	    -10.99856618	     -0.79338377	      9.54938833	      0.00000000	     14.72894770	    -13.66682520	    -29.61817245	     -9.93591756	      1.86910844	     21.32238279	      0.00000000	      5.66676076	      0.79694733	     -0.55379565
      0.07500000	      8.99953636	      1.85610860	   -178.20110901	      0.22714311	      0.85123268	     -1.19506766	     14.49085673	    -11.17573688	    -32.06543531	    -11.04306193	     -0.80906647	      9.51239637	      0.00000000	     14.71940906	    -13.66409432	    -29.60339913	     -9.94067130	      1.90078866	     21.31973243	      0.00000000	      5.65852881	      0.78856419	     -0.59786118
      0.08000000	      8.99880532	      1.85225844	   -178.17584145	      0.22697023	      0.85123257	     -1.19499238	     14.47924935	    -11.18677833	    -32.05444345	    -11.05156374	     -0.83060583	      9.51677110	      0.00000000	     14.71488369	    -13.65105361	    -29.56955073	     -9.94436279	      1.92678938	     21.33224881	      0.00000000	      5.65496678	      0.77527821	     -0.64594459
      0.08500000	      8.95824370	      1.90651053	   -178.19213745	      0.22676443	      0.85133086	     -1.19495168	     14.45197378	    -11.13076695	    -32.15501736	    -11.09072048	     -0.84771372	      9.46710929	      0.00000000	     14.65385574	    -13.70818969	    -29.57736779	     -9.93689388	      1.92156934	     21.29709276	      0.00000000	      5.61426284	      0.83862186	     -0.63335033
      0.09000000	      8.95178369	      1.93187809	   -178.21150096	      0.22655829	      0.85139028	     -1.19479804	     14.47603100	    -11.12053115	    -32.21031359	    -11.16607211	     -0.86116042	      9.43867230	      0.00000000	     14.62126250	    -13.72352581	    -29.57196401	     -9.91817161	      1.92236243	     21.28026179	      0.00000000	      5.61778540	      0.88126925	     -0.61753048
      0.09500000	      8.93071164	      1.97133026	   -178.22679630	      0.22631840	      0.85146474	     -1.19465280	     14.47177911	    -11.09153512	    -32.28197002	    -11.21838402	     -0.84155855	      9.42797980	      0.00000000	     14.57129893	    -13.75054538	    -29.56393228	     -9.90051184	      1.90560113	     21.22909342	      0.00000000	      5.60469620	      0.94305269	     -0.60752315
      0.10000000	      8.90326901	      2.00637396	   -178.22002680	      0.22607851	      0.85150742	     -1.19449399	     14.45778332	    -11.07795398	    -32.41666198	    -11.28373641	     -0.90435553	      9.45466578	      0.00000000	     14.52061554	    -13.76438313	    -29.50249978	     -9.88173780	      1.95968595	     21.17004906	      0.00000000	      5.57487855	      0.98496157	     -0.61003623
      0.10500000	      8.90122680	      2.01390687	   -178.20819525	      0.22595598	      0.85157377	     -1.19450263	     14.47103831	    -11.07125068	    -32.45674576	    -11.33243602	     -0.91352473	      9.42441616	      0.00000000	     14.50399741	    -13.76409706	    -29.50268250	     -9.86235171	      1.95701335	     21.16492553	      0.00000000	      5.57720551	      0.99171669	     -0.65458840
